<svg width="76.3" height="124" viewBox="0 0 20.188 32.808" xml:space="preserve" xmlns="http://www.w3.org/2000/svg"><g style="fill:#fff" fill="#3ebbc4"><path d="m95.4 17.3-3.1-2.5c-4.3 5.3-8.2 11.1-11.7 17L78 30.4l-1 1.8c-9.1 16.6-11.4 27.6-11.9 43.1h-3.3c-.4-15.5-2.7-26.6-11.8-43.2l-1-1.8-2.6 1.5c-3.4-6-7.3-11.7-11.7-17l-3.1 2.5c4.2 5.2 7.9 10.7 11.2 16.5l-2.6 1.4 1 1.8c8.5 15.5 10.4 25 10.7 40.3-4.4 1.7-6.9 4.3-6.9 7.4v30.8c0 6 8.2 10.5 19 10.5s19-4.5 19-10.5V84.7c0-3.3-2.9-6.1-7.9-7.8.4-15.1 2.2-24.5 10.7-39.9l1-1.8-2.6-1.4c3.3-5.8 7-11.4 11.2-16.5zm-48 18.5C56.3 52.3 57.9 62.7 58 83.3c-.6.2-1.4.2-2 0 0-18.7-1.2-29.4-10.3-46.5ZM64 122c-8.6 0-15-3.4-15-6.5V90.6c3.4 2.2 8.8 3.5 15 3.5 6.2 0 11.6-1.4 15-3.5v24.9c0 3.1-6.4 6.5-15 6.5zm15-37.3c0 2.2-5.8 5.5-15 5.5s-15-3.3-15-5.5c0-1 1.1-2.1 3-3.1v4l.9.6c1.2.8 2.6 1.2 4.1 1.2 1.5 0 2.9-.4 4.1-1.2l.9-.6v-6.4c1-.1 2.1-.1 3.1 0v6.4l.9.6c1.2.8 2.6 1.2 4.1 1.2 1.5 0 2.9-.4 4.1-1.2l.9-.6v-4.5c2.6 1.2 3.9 2.6 3.9 3.6zm-8-1.4c-.3.1-.7.1-1 .1-.3 0-.7-.1-1-.1.1-20.6 1.7-30.9 10.6-47.5l1.8 1C72.2 53.9 71.1 64.5 71 83.3Z" style="fill:#fff" transform="translate(-8.36 -.53) scale(.26458)"/><path style="fill:#fff" d="M91.9 2h4v8h-4z" transform="translate(-8.36 -.53) scale(.26458)" opacity=".3"/><path transform="rotate(45 23.164 -7.988) scale(.26458)" style="fill:#fff" d="M98.9 4.9h4v8h-4z" opacity=".3"/><path style="fill:#fff" d="M99.9 14h8v4h-8z" transform="translate(-8.36 -.53) scale(.26458)" opacity=".3"/></g></svg>