<svg width="120" height="124" viewBox="0 0 31.75 32.808" xml:space="preserve" xmlns="http://www.w3.org/2000/svg"><g style="fill:#fff" fill="#3ebbc4"><path d="m72.9 41.8 1.1-.6V12c0-5.5-4.5-10-10-10S54 6.5 54 12v29.2l1.1.6c.9.4 1.4 1.3 1.4 2.2 0 1-.5 1.8-1.4 2.2l-1.1.6V54h8v26.3c-3.4.9-5.9 4-5.9 7.7v2h16v-2c0-3.8-2.6-6.9-6.1-7.8V54h8v-7.2l-1.1-.6c-.9-.4-1.4-1.2-1.4-2.2 0-1 .5-1.8 1.4-2.2zM67.6 86h-6.9c.7-1.2 2-2 3.5-2s2.7.8 3.4 2zM64 6c2.6 0 4.8 1.7 5.6 4H58.4c.8-2.3 3-4 5.6-4zm6 43.1v.9H58v-.9c1.5-1.2 2.5-3.1 2.5-5.1 0-2-.9-3.9-2.5-5.1V14h12v24.9c-1.5 1.2-2.5 3.1-2.5 5.1 0 2 1 3.9 2.5 5.1zM61.1 92h6v4h-6zm0 6h6v4h-6zm0 6h6v4h-6zm0 6h6v4h-6zm1 6h4v4h-4zm-47.6 2.7-2-.4c-4.3-.9-7.1-5.2-6.2-9.5.8-3.7 4.1-6.3 7.8-6.3.6 0 1.1.1 1.7.2l2 .4zm-1.5-12c-1.3.4-2.4 1.6-2.7 3-.3 1.4.2 2.9 1.2 3.8z" style="fill:#fff" transform="translate(-1.058 -.53) scale(.26458)"/><path transform="matrix(.25879 .05503 -.05503 .25879 5.209 -.987)" style="fill:#fff" d="M18.1 108.8h4v6h-4z"/><path transform="rotate(12.006 8.853 24.605) scale(.26458)" style="fill:#fff" d="M23.9 110h4v6h-4z"/><path transform="rotate(12.006 10.404 24.927) scale(.26458)" style="fill:#fff" d="M29.8 111.2h4v6h-4z"/><path transform="rotate(12.006 11.959 25.265) scale(.26458)" style="fill:#fff" d="M35.7 112.5h4v6h-4z"/><path transform="rotate(12.006 13.512 25.595) scale(.26458)" style="fill:#fff" d="M41.6 114.7h4v4h-4z"/><path d="M34.3 77.4C23.2 74.2 17 69.5 17 64c0-7 10.2-12.8 27.2-15.5l.6 3.9C28.5 55.1 21 60.3 21 64c0 3.3 5.5 7 14.4 9.5zm49 2.2-.6-4C99.4 73 107 67.8 107 64c0-3.4-5.6-7-14.5-9.5l1.1-3.9C104.8 53.8 111 58.5 111 64c0 7.1-10.3 12.9-27.7 15.6z" style="fill:#fff" transform="translate(-1.058 -.53) scale(.26458)" opacity=".3"/><path style="fill:#fff" d="M4 122h120v4H4z" transform="translate(-1.058 -.53) scale(.26458)"/></g></svg>