<svg width="124" height="124" viewBox="0 0 32.808 32.808" xml:space="preserve" xmlns="http://www.w3.org/2000/svg"><g style="fill:#fff" fill="#3ebbc4"><g style="fill:#fff"><path style="fill:#fff" d="M86 31h4v16h-4zm-10 0h4v16h-4z" transform="translate(-.53 -.53) scale(.26458)"/><path d="M126 77H94V56h6v-4c-1.1 0-2-.9-2-2V28c0-1.1.9-2 2-2v-4h-6V2H72v20h-6v4c1.1 0 2 .9 2 2v22c0 1.1-.9 2-2 2v4h6v70h22V99h32zM76 6h14v16H76Zm-4.3 20h22.7c-.2.6-.3 1.3-.3 2v22c0 .7.1 1.4.3 2H71.7c.2-.6.3-1.3.3-2V28c0-.7-.1-1.4-.3-2zm4.3 96V56h14v21.2c-5.1.9-9 5.4-9 10.8s3.9 9.9 9 10.8V122Zm46-27H92c-3.9 0-7-3.1-7-7s3.1-7 7-7h30z" style="fill:#fff" transform="translate(-.53 -.53) scale(.26458)"/></g><g style="fill:#fff"><path style="fill:#fff" d="M16 72h4v33h-4z" transform="translate(-.53 -.53) scale(.26458)"/><path d="M44 18v-2c0-7.7-6.3-14-14-14h-9C13.3 2 7 8.3 7 16v24H2v16h5v59c0 6.1 4.9 11 11 11s11-4.9 11-11V72c0-4.8-3.4-8.9-8-9.8V56h9c7.7 0 14-6.3 14-14v-2H21V18ZM21 6h9c4.8 0 8.9 3.4 9.8 8H11.2c.9-4.6 5-8 9.8-8zm4 66v43c0 3.9-3.1 7-7 7s-7-3.1-7-7V66h8c3.3 0 6 2.7 6 6zm-8-10h-6v-6h6zm13-10H6v-8h33.8c-.9 4.6-5 8-9.8 8zM17 40h-6V18h6z" style="fill:#fff" transform="translate(-.53 -.53) scale(.26458)"/><path style="fill:#fff" d="M17 46h10v4H17zm-3 69c0 2.2 1.8 4 4 4s4-1.8 4-4-1.8-4-4-4-4 1.8-4 4z" transform="translate(-.53 -.53) scale(.26458)"/></g></g></svg>