<svg width="120.9" height="124" viewBox="0 0 31.988 32.808" xml:space="preserve" xmlns="http://www.w3.org/2000/svg"><g style="fill:#fff" fill="#3ebbc4"><path d="m66.4 66.8 12.3-12.3 37.7-37.7-9.4-9.4 5.4-5.4H2v123.3l-.5.7H26l15-14.9-9.4-9.4 9.4-9.4-9.4-9.4 9.4-9.4-9.4-9.4 9.4-9.4-9.5-9.7 6.5-6.5ZM6 6h2.3L6 8.3Zm18.4 116H11.2l17.5-17.5 6.6 6.6zM6 121.5v-13.2l22.7-22.7 6.6 6.6zm0-18.9V89.4l22.7-22.7 6.6 6.6zm60.4-41.5L40.9 35.7l-9.4-9.4 6.5-6.5 35 34.7ZM35.3 16.8 6 46V32.8l22.7-22.7Zm40.5 34.9-6.6-6.6 34.9-34.9 6.6 6.6zM102.6 6 75.8 32.8l-6.6-6.6L89.4 6ZM73 6h10.7l-7.9 7.9-6.6-6.6L70.5 6ZM62.2 6 73 16.8l-6.6 6.6L49 6ZM43.3 6 73 35.6l-6.6 6.6-25.5-25.4-9.4-9.4L32.8 6ZM27.2 6 6 27.2V14l8-8Zm8.1 48.4L6 83.7V70.6l22.7-22.7Zm-6.6-12.2L6 64.9V51.7L28.7 29l6.6 6.6zm79.9 18.9L68 101.6l12.3 12.3 40.5-40.5Zm-34.9 40.5 34.9-34.9 6.6 6.6-34.9 34.9z" style="fill:#fff" transform="translate(-.397 -.53) scale(.26458)"/><path style="fill:#fff" d="M34.4 37h4v15h-4zm0 20h4v15h-4zm0 18h4v15h-4zm0 19h4v15h-4zm0 19h4v13h-4zm-7 6.5h4v6.5h-4zm14-78.5h4v85h-4zm7 7h4v78h-4zm7 7h4v71h-4zm7 8h4v63h-4zm7-3h4v66h-4zm7-8h4v42.1h-4zm0 57.1h4V126h-4zm7-64h4v41.8h-4zm0 61.8h4V126h-4zm7-68.9h4v41.5h-4zm0 61.7h4V126h-4zm7-68.7h4v41.8h-4zm0 61.5h4V126h-4zm7-68.5h4v41.2h-4zm0 61.7h4V126h-4zm7-83.7h4v65.8h-4zm0 76.8h4V126h-4zm7-76.8h4v124h-4z" transform="translate(-.397 -.53) scale(.26458)" opacity=".3"/></g></svg>