<svg width="124.9" height="99.8" viewBox="0 0 33.046 26.405" xml:space="preserve" xmlns="http://www.w3.org/2000/svg"><g style="fill:#fff" fill="#3ebbc4"><path d="M86.5 22 64.9 32.8v10l-11.5 5.7L44.7 66l-3.5-1.8-8.6 17.3c-1 1.9-.8 4.2.5 5.9l.3.4 4.4 2.2h.5c2.1 0 4.1-1.2 5-3.1l8.6-17.3-3.6-1.8 8.1-16.3 8.5-4.3V52h24v-7c0-1.7 1.3-3 3-3H126V22ZM39.8 85.1c-.2.4-.6.7-1.1.9l-2.6-1.3c-.2-.4-.2-.9 0-1.4L43 69.6l3.6 1.8ZM84.9 48h-6v-1h6zM122 38H91.9c-3.2 0-5.8 2.1-6.7 5H74.9v5h-6V35.2L87.4 26H122Z" style="fill:#fff" transform="translate(-.291 -5.82) scale(.26458)"/><g opacity=".3" style="fill:#fff"><path d="M20.2 112c-3.9 0-7 3.1-7 7v2h14v-2c0-3.9-3.1-7-7-7zm-2.2 5c.5-.6 1.3-1 2.2-1 .9 0 1.7.4 2.2 1z" style="fill:#fff" transform="translate(-.291 -5.82) scale(.26458)"/><path style="fill:#fff" d="m4.7 79.3-3.6 1.5 7.2 28.5-6.2 3.3-.6 3.1 5.6 6.1 3-2.7-3.9-4.2 5.4-2.8 1-2.3-4.2-16.5 8.5 14.4 3.5-.1 4.9-9.5 1.9 11.9 2.5 1.6 14.5-3.9-13.8 11 2.5 3.1 21.3-17-1.7-3.5-21.7 5.9-.6-3.6 7.5-14.8-3.6-1.7-5 9.8-.9-5.4-3.7-.6-6 11.6z" transform="translate(-.291 -5.82) scale(.26458)"/></g><path style="fill:#fff" d="M56.5 86.7h4v4h-4zm19 16h4v4h-4zm-61-27h4v4h-4zm20-30h4v4h-4zM2 45.7h4v4H2z" transform="translate(-.291 -5.82) scale(.26458)" opacity=".3"/></g></svg>