<svg width="124" height="124" viewBox="0 0 32.808 32.808" xml:space="preserve" xmlns="http://www.w3.org/2000/svg"><g style="fill:#fff" fill="#3ebbc4"><path d="M41.3 41.3H2V2h39.3ZM6 37.3h31.3V6H6Z" style="fill:#fff" transform="translate(-.53 -.53) scale(.26458)"/><path style="fill:#fff" d="M30.3 9h4v10.3h-4zm-6 0h4v5.3h-4zm7 42h4v10.3h-4zm-6 0h4v5.3h-4z" transform="translate(-.53 -.53) scale(.26458)" opacity=".3"/><path style="fill:#fff" d="M31.3 51h4v10.3h-4zm-6 0h4v5.3h-4zm6 42h4v10.3h-4zm-6 0h4v5.3h-4z" transform="translate(-.53 -.53) scale(.26458)" opacity=".3"/><path style="fill:#fff" d="M31.3 93h4v10.3h-4zm-6 0h4v5.3h-4zm48 0h4v10.3h-4zm-6 0h4v5.3h-4z" transform="translate(-.53 -.53) scale(.26458)" opacity=".3"/><path style="fill:#fff" d="M73.3 93h4v10.3h-4zm-6 0h4v5.3h-4zm48 0h4v10.3h-4zm-6 0h4v5.3h-4z" transform="translate(-.53 -.53) scale(.26458)" opacity=".3"/><path style="fill:#fff" d="M115.3 93h4v10.3h-4zm-6 0h4v5.3h-4z" transform="translate(-.53 -.53) scale(.26458)" opacity=".3"/><path d="M41.3 83.6H2V44.4h39.3ZM6 79.6h31.3V48.4H6Z" style="fill:#fff" transform="translate(-.53 -.53) scale(.26458)"/><path style="fill:#fff" d="M73.6 51h4v10.3h-4zm-6 0h4v5.3h-4z" transform="translate(-.53 -.53) scale(.26458)" opacity=".3"/><path style="fill:#fff" d="M73.6 51h4v10.3h-4zm-6 0h4v5.3h-4z" transform="translate(-.53 -.53) scale(.26458)" opacity=".3"/><path d="M83.6 83.6H44.4V44.4h39.3v39.2zm-35.2-4h31.3V48.4H48.4ZM41.3 126H2V86.7h39.3ZM6 122h31.3V90.7H6Zm77.6 4H44.4V86.7h39.3V126Zm-35.2-4h31.3V90.7H48.4Z" style="fill:#fff" transform="translate(-.53 -.53) scale(.26458)"/><path style="fill:#fff" d="M44.4 2h4v39h-4zm7 0h4v39h-4zm7 0h4v39h-4zm7 0h4v39h-4zm7 0h4v39h-4zm7 0h4v39h-4zm7 0h4v82h-4zm7 0h4v82h-4zm7 0h4v82h-4zm7 0h4v82h-4zm7 0h4v82h-4zm7 0h4v82h-4z" transform="translate(-.53 -.53) scale(.26458)" opacity=".3"/><path d="M126 126H86.7V86.7H126Zm-35.3-4H122V90.7H90.7Z" style="fill:#fff" transform="translate(-.53 -.53) scale(.26458)"/></g></svg>