<svg width="123.7" height="106.906" viewBox="0 0 32.729 28.286" xml:space="preserve" xmlns="http://www.w3.org/2000/svg"><g style="fill:#fff" fill="#3ebbc4"><g style="fill:#fff"><g style="fill:#fff"><path transform="rotate(45 11.279 15.641) scale(.26458)" style="fill:#fff" d="M28.9 48.6h4v36.9h-4z"/><circle cx="11.9" cy="86.1" r="1.7" style="fill:#fff" transform="translate(-.582 -2.803) scale(.26458)"/></g><path d="M46.8 49.1h2zM64 34" style="fill:#fff" transform="translate(-.582 -2.803) scale(.26458)" opacity=".15"/><g style="fill:#fff" opacity=".3"><path style="fill:#fff" d="M44.6 34h-4zM64 34" transform="translate(-.582 -2.803) scale(.26458)"/><g style="fill:#fff" transform="translate(-.582 -2.803) scale(.26458)"><path transform="rotate(45.009 97.06 67.038)" style="fill:#fff" d="M78.6 65h36.9v4H78.6z"/><circle cx="116.1" cy="86.1" r="1.7" style="fill:#fff"/><path d="M123 79.3 96.1 52.4c-4-4-8.6-11.7-8.7-16.3l-4 .1c.1 6.4 6 15.1 9.9 19l26.9 26.9c1.1 1.1 1.7 2.5 1.7 4s-.6 3-1.7 4c-2.2 2.2-5.9 2.2-8.1 0L85.2 63.3c-2-2-5.3-4.5-8.9-6.5.8-2 1.7-3.6 2.8-4.7l-2.9-2.8c-1.4 1.5-2.6 3.5-3.5 5.8-2.3-.9-4.5-1.6-6.5-1.6l-.1 4c1.5 0 3.4.6 5.3 1.4-1.1 3.9-1.7 8-1.7 10.9v38c0 3.2-2.6 5.7-5.7 5.7s-5.7-2.6-5.7-5.7v-38c0-3.4-.8-7.9-2-11.8l-3.8 1.2c1.1 3.5 1.8 7.6 1.8 10.6v38c0 5.4 4.4 9.7 9.7 9.7 5.3 0 9.7-4.4 9.7-9.7v-38c0-2.7.5-6 1.3-9.1 2.8 1.6 5.5 3.6 7.3 5.5l27 26.8c1.9 1.9 4.4 2.8 6.9 2.8s5-.9 6.9-2.8c1.8-1.8 2.8-4.3 2.8-6.9-.1-2.6-1.1-5-2.9-6.8z" style="fill:#fff"/><path style="fill:#fff" d="M62 62.3h4v36.9h-4z"/><circle cx="64" cy="107.7" r="1.7" style="fill:#fff"/></g></g></g><path d="m86.6 27.9-.1-.5-.8-.8-3.3-11.4-10.9-2.7-1-1-.5-.1c-8.1-2.2-16.6.2-22.5 6l-.1.1c-4.8 4.8-7.1 11.3-6.8 17.7v.8c-.1 4.6-4.7 12.3-8.7 16.3L5 79.2c-1.8 1.9-2.8 4.3-2.8 6.9 0 2.6 1 5.1 2.8 6.9 1.9 1.9 4.4 2.8 6.9 2.8s4.9-.9 6.8-2.8l26.9-26.9c4-4.1 11.7-8.6 16.3-8.7.7.1 1.4.1 2.1.1 6.3 0 12.1-2.4 16.6-6.9 5.9-5.9 8.2-14.6 6-22.7zM70.5 16.3l8.6 2.2 2.5 8.7-6.3 6.5-8.8-2.2-2.5-8.7 2.5-2.5zM72.1 37l-1.9 1.9c-5.7-.8-10.3-5.4-11.1-11.1l1.8-1.8 2.5 8.8zM42.8 63.2 15.9 90.1c-2.2 2.2-5.9 2.2-8.1 0-1.1-1-1.7-2.5-1.7-4s.6-2.9 1.7-4l26.9-27c2.5-2.5 5.8-7 7.9-11.5 1.1 2.6 2.7 5 4.8 7 2 2 4.4 3.6 6.9 4.8-4.6 2.1-9 5.3-11.5 7.8zm34.9-15.5c-3.6 3.5-8.3 5.5-13.3 5.6l-1.4.1c-4.8-.2-9.4-2.2-12.7-5.7-3.6-3.6-5.4-8.1-5.7-12.8l.1-1.4c.1-4.4 1.6-8.6 4.4-11.9.4-.5.8-.9 1.2-1.4 4.3-4.3 10.2-6.3 16.1-5.5l-2.7 2.8-8.7 8.8.1.9c.6 8.4 7.4 15.2 15.8 15.8l.9.1 4.9-4.9.7-.8 5.8-5.8c.8 5.8-1.2 11.9-5.5 16.1Z" style="fill:#fff" transform="translate(-.582 -2.803) scale(.26458)"/><path d="M72.2 27.9c-1-.3-1.9-1.1-2.2-2.1-.3-1 0-2.1.7-2.9.7-.8 1.8-1.1 2.9-.8 1 .3 1.9 1.1 2.2 2.1.3 1 0 2.1-.7 2.9-.8.7-1.9 1.1-2.9.8z" style="fill:#fff" transform="translate(-.582 -2.803) scale(.26458)"/></g></svg>