<svg width="94" height="124" viewBox="0 0 24.871 32.808" xml:space="preserve" xmlns="http://www.w3.org/2000/svg"><g style="fill:teal;fill-opacity:1" fill="#3ebbc4"><path d="M110 23.2 88.8 2H16v124h94zM90 8.8 103.2 22H90ZM20 122V6h66v20h20v96z" style="fill:teal;fill-opacity:1" transform="translate(-4.233 -.53) scale(.26458)"/><path style="fill:teal;fill-opacity:1" d="M49 22h30v4H49zM34 38h60v4H34zm0 10h60v4H34zm0 10h60v4H34zm0 10h60v4H34zm49 14c-6.6 0-12 5.4-12 12 0 4 2 7.5 5 9.7V116l7-2.8 7 2.8v-9h-4v3l-3-1.2-3 1.2v-4.4c1 .2 2 .4 3 .4 6.6 0 12-5.4 12-12s-5.4-12-12-12zm0 20c-4.4 0-8-3.6-8-8s3.6-8 8-8 8 3.6 8 8-3.6 8-8 8z" transform="translate(-4.233 -.53) scale(.26458)"/></g></svg>