<svg width="125.6" height="124.8" viewBox="0 0 33.232 33.02" xml:space="preserve" xmlns="http://www.w3.org/2000/svg"><g transform="translate(-.317 -.318) scale(.26458)" style="fill:#fff;fill-opacity:1" fill="#3ebbc4"><circle cx="84.2" cy="84" r="3" style="fill:#fff;fill-opacity:1"/><path d="m38.3 76.8-7.1 5.7 6.8 8.8h6.8l1.7-1.7 1.7 1.7h6.7l1.7-1.7 1.7 1.7h5.5C66.4 97 72.2 101 79 101c9.4 0 17-7.6 17-17s-7.6-17-17-17c-6.8 0-12.6 4-15.4 9.8Zm21.5 10.5L56.5 84l-3.3 3.3h-3.3L46.6 84l-3.3 3.3H40l-3.2-4.2 2.9-2.3h22.6c-.2 1-.3 2.1-.3 3.2s.1 2.2.3 3.2h-2.5ZM79 71c7.2 0 13 5.8 13 13s-5.8 13-13 13-13-5.8-13-13 5.8-13 13-13z" style="fill:#fff;fill-opacity:1"/><path d="M111 12H92v17.2l-28-28L1.2 64 9 71.8l8-8V126h94V63.8l8 8 7.8-7.8L111 48.2Zm-4 48v62H21V60h-.2L64 16.8 107.2 60Zm14.2 4-2.2 2.2-55-55-55 55L6.8 64 64 6.8l32 32V16h11v33.8z" style="fill:#fff;fill-opacity:1"/></g></svg>