<svg width="84.6" height="124" viewBox="0 0 22.384 32.808" xml:space="preserve" xmlns="http://www.w3.org/2000/svg"><g style="fill:teal;fill-opacity:1" fill="#3ebbc4"><path d="M64 126c9.4 0 17.1-7.7 17.1-17.1V98.8c0-7.4 4.6-12.9 9.9-19.2 6.8-8.1 14.5-17.3 15.2-33.1 0-.7.1-1.5.1-2.2C106.3 21 87.3 2 64 2 40.7 2 21.7 21 21.7 44.3c0 .8 0 1.5.1 2.2.7 15.9 8.4 25.1 15.2 33.1 5.3 6.3 9.9 11.8 9.9 19.2v10.1c0 9.4 7.7 17.1 17.1 17.1zm0-4c-6.5 0-12-4.8-12.9-11.1h8.7v-4h-8.9v-6.1h26.2v8.1c0 7.2-5.9 13.1-13.1 13.1ZM40 77.1c-6.4-7.6-13.7-16.2-14.3-30.8 0-.7-.1-1.3-.1-2C25.7 23.2 42.9 6 64 6c21.1 0 38.3 17.2 38.3 38.3 0 .7 0 1.4-.1 2-.6 14.5-7.9 23.1-14.3 30.7-5.1 6.1-10 11.9-10.7 19.8H50.8C50.1 89 45.2 83.2 40 77.1Z" style="fill:teal;fill-opacity:1" transform="translate(-5.741 -.53) scale(.26458)"/><path d="M64 16.9v-4c-12.7 0-24.1 7.6-29 19.4l3.7 1.5C42.9 23.6 52.9 16.9 64 16.9ZM52.6 55.4 64 66.8l11.4-11.4-2.8-2.8-8.6 8.6-8.6-8.6z" style="fill:teal;fill-opacity:1" transform="translate(-5.741 -.53) scale(.26458)"/></g></svg>