<svg width="124" height="124" viewBox="0 0 32.808 32.808" xml:space="preserve" xmlns="http://www.w3.org/2000/svg"><g style="fill:teal;fill-opacity:1" fill="#3ebbc4"><path d="M64 2H49.5v12c-3.7 1.1-7.2 2.5-10.6 4.4l-8.5-8.5L9.9 30.4l8.5 8.5c-1.9 3.4-3.3 6.9-4.4 10.6H2v29h12c1.1 3.7 2.5 7.2 4.4 10.6l-8.5 8.5 20.5 20.5 8.5-8.5c3.4 1.9 6.9 3.3 10.6 4.4v12H64c34.2 0 62-27.8 62-62S98.2 2 64 2Zm0 120H53.5v-11.1l-1.5-.4c-4.3-1.1-8.5-2.8-12.4-5.1l-1.3-.8-7.9 7.9-14.8-14.9 7.9-7.9-.8-1.3c-2.3-3.9-4-8.1-5.1-12.4l-.4-1.5H6v-21h11.1l.4-1.5c1.1-4.3 2.8-8.5 5.1-12.4l.8-1.3-7.9-7.9 14.8-14.8 7.9 7.9 1.3-.8c3.9-2.3 8.1-4 12.4-5.1l1.5-.4V6H64c32 0 58 26 58 58s-26 58-58 58z" style="fill:teal;fill-opacity:1" transform="translate(-.53 -.53) scale(.26458)"/><path style="fill:teal;fill-opacity:1" d="m64 66.8 17 17 2.8-2.8-17-17 27.6-27.6-2.8-2.8L64 61.2l-5.7-5.7-2.8 2.8 5.7 5.7-5.7 5.7 2.8 2.8z" transform="translate(-.53 -.53) scale(.26458)"/><path d="M64 92c-15.4 0-28-12.6-28-28s12.6-28 28-28v-4c-17.6 0-32 14.4-32 32s14.4 32 32 32Zm-2-69.7h4v3.3h-4zM102.3 62h3.3v4h-3.3zM62 102.3h4v3.3h-4z" style="fill:teal;fill-opacity:1" transform="translate(-.53 -.53) scale(.26458)"/></g></svg>