<svg width="117" height="124" viewBox="0 0 30.956 32.808" xml:space="preserve" xmlns="http://www.w3.org/2000/svg"><g style="fill:teal;fill-opacity:1" fill="#3ebbc4" transform="translate(-1.455 -.53) scale(.26458)"><path d="M117.5 68.2c3-2 5-5.4 5-9.2 0-6.1-4.9-11-11-11h-24c-1.7 0-3-1.3-3-3V18c0-8.8-7.2-16-16-16-2.8 0-5 2.2-5 5v18.7C59.7 37 52.7 46.9 43.3 54.3l-3.1 2.5v-2.7H5.5V126h34.7v-6c6.4 3.9 13.7 6 21.2 6h39.1c5.5 0 10-4.5 10-10 0-2.3-.8-4.5-2.1-6.1 5.7-.9 10.1-5.9 10.1-11.9 0-3.5-1.5-6.6-3.8-8.8 4.6-1.7 7.8-6.1 7.8-11.2 0-4-2-7.6-5-9.8zM36.2 122H9.5V58.1h26.7zm74.3-36h-4v4c4.4 0 8 3.6 8 8s-3.6 8-8 8h-6v4c3.3 0 6 2.7 6 6s-2.7 6-6 6H61.4c-7.6 0-15-2.4-21.2-6.8V61.9l5.6-4.4c10.1-8 17.5-18.6 21.6-30.8l.1-.3V7c0-.6.4-1 1-1 6.6 0 12 5.4 12 12v27c0 3.9 3.1 7 7 7h24c3.9 0 7 3.1 7 7s-3.1 7-7 7h-1v4c4.4 0 8 3.6 8 8s-3.6 8-8 8z" style="fill:teal;fill-opacity:1"/><circle cx="22.9" cy="115.1" r="3" style="fill:teal;fill-opacity:1"/></g></svg>